<?xml version="1.0" encoding="utf-8"?>
<!-- Generator: Adobe Illustrator 16.0.0, SVG Export Plug-In . SVG Version: 6.00 Build 0)  -->
<!DOCTYPE svg PUBLIC "-//W3C//DTD SVG 1.1//EN" "http://www.w3.org/Graphics/SVG/1.1/DTD/svg11.dtd">
<svg version="1.1" id="Layer_1" xmlns="http://www.w3.org/2000/svg" xmlns:xlink="http://www.w3.org/1999/xlink" x="0px" y="0px"
	 width="478.2px" height="494.986px" viewBox="0 0 478.2 494.986" enable-background="new 0 0 478.2 494.986" xml:space="preserve">
<g>
	<path d="M72.372,318.615c0,9.512-0.414,15.952,0.138,25.464c-9.236-0.138-27.846,1.103-27.846,1.103s1.209,12.289,1.898,21.111
		c0.827,8.684,0.414,17.782,1.379,26.467c0.275,2.068,1.103,12.82,1.103,12.82s-10.753,0-12.407,0
		c-2.067-0.138-12.683-1.379-12.683-1.379s0-11.441,0-13.647c0-8.96-0.964-18.194-1.654-27.155
		c-0.138-4.55-1.071-14.771-1.071-14.771s-5.514-0.413-6.755-0.413c-2.344,0.275-13.51,1.24-13.51,1.24s-0.413-7.682-0.413-9.336
		C0.414,337.637,0,327.712,0,327.712s11.304-2.068,12.82-2.205C22.47,323.99,61.106,320.482,72.372,318.615z"/>
	<path d="M146.061,404.423c-6.506,2.297-19.178,2.48-19.178,2.48s-12.365-25.95-14.662-31.31c0.383,4.465,0.638,8.804,1.021,13.396
		c0.51,6.124,1.658,12.247,2.296,18.626c-7.145,0.128-13.816-0.88-21.305-0.801c0.766-14.927,0-27.775,0.766-42.702
		c0.382-7.654-0.511-15.311-0.128-22.963c0.383-7.019,0.128-14.544-0.383-21.815c7.017-0.766,15.054-0.893,21.943,1.021
		c12.12,3.443,24.75,12.757,22.07,26.918c-1.531,7.653-6.761,13.649-13.268,17.859C133.175,378.895,139.946,392.311,146.061,404.423
		z"/>
	<path d="M194.592,400.067c3.746-7.121,7.534-14.2,11.592-21.243c3.47,6.272,5.811,12.727,9.149,19.288
		c0.295,0.583,0.584,1.173,0.877,1.758c9.095-0.03,18.142-0.067,27.19,0.038c-5.117-13.175-12.336-25.572-18.299-38.578
		c-2.903-6.292-5.953-12.722-9.14-19.005c-3.338-6.562-5.679-13.016-9.149-19.288c-7.252,12.587-13.649,25.288-20.467,38.146
		c-6.827,12.573-14.08,25.16-19.754,38.265C175.746,400.08,185.187,400.17,194.592,400.067z"/>
	<path d="M457.838,357.938c-2.918-6.285-5.984-12.707-9.188-18.982c-3.355-6.553-5.713-13-9.199-19.265
		c-7.221,12.605-13.584,25.323-20.367,38.198c-6.795,12.592-14.014,25.197-19.654,38.315c12.521,0.834,25.576,0.656,38.342,0.346
		c12.918-0.031,25.688-0.199,38.469-0.084C471.088,383.304,463.836,370.926,457.838,357.938z M438.833,378.395
		c-3.791,0.094-7.666,0.146-11.385-0.103c1.674-3.895,3.816-7.639,5.836-11.377c2.014-3.824,3.904-7.601,6.049-11.344
		c1.035,1.859,1.734,3.774,2.73,5.721c0.951,1.863,1.861,3.77,2.729,5.637c1.781,3.857,3.934,7.533,5.465,11.441
		C446.461,378.336,442.668,378.386,438.833,378.395z"/>
	<path d="M275.258,406.568c2.654-0.106,5.229,0.344,7.904,0.636c0.615-1.177,1.236-2.352,1.879-3.506
		c6.525-11.491,11.065-23.552,16.74-35.325c4.121,13.622,9.627,26.6,14.656,39.823c1.426,0.115,2.87,0.188,4.361,0.073
		c1.369,0,2.66-0.312,4.049-0.416c2.529-4.718,5.138-9.42,7.15-14.37c3.405-8.229,7.096-16.6,11.351-24.687
		c2.554,7.094,4.683,14.046,7.661,20.855c2.695,6.384,4.398,12.769,6.525,19.437c0.059,0.177,0.125,0.351,0.184,0.525
		c8.295,0.229,16.482-0.536,24.794,0.782c-4.683-12.06-10.216-23.977-13.903-36.318c-1.845-6.242-4.822-11.775-6.811-17.876
		c-2.129-6.668-3.83-13.053-6.525-19.438c-2.979-6.81-5.494-10.407-8.048-17.502c-4.257,8.087-7.56,13.104-10.964,21.333
		c-3.405,8.37-12.059,24.26-12.059,24.26l-29.113-39.873c0,0-17.279,49.945-22.387,62.007c-2.838,6.667-6.242,13.052-9.646,19.436
		C267.313,406.851,271.002,406.851,275.258,406.568z"/>
	<path d="M72.635,112.024c23.729,0,48.88,5.972,71.832,11.546c22.05,5.352,51.148,12.467,63.774,33.21
		c7.846,12.889,10.716,32.351,2.993,45.969c-8.516,15.017-24.969,16.341-40.434,15.417c-22.127-1.323-39.517-18.914-54.925-33.148
		C95.664,166.347,80.604,138.341,72.635,112.024"/>
	<path d="M178.74,272.011c1.618-12.096,15.167-57.145,35.295-40.165c9.408,7.937,0.166,20.495-6.457,26.331
		C199.542,265.256,189.474,270.485,178.74,272.011"/>
	<path d="M230.575,203.858c3.909,6.763,13.405,9.895,19.954,13.54c7.431,4.136,15.126,7.261,21.906,12.479
		c6.946,5.345,17.437,12.718,18.17,22.042c0.647,8.199-1.015,19.217-7.45,25.001c-13.597,12.224-35.043,2.769-42.607-11.448
		C231.354,248.202,226.077,223.345,230.575,203.858"/>
	<path d="M281.672,191.709c10.623,24.571,45.91,115.327,82.73,69.265c7.309-9.146,15.65-25.414,8.969-36.785
		c-6.213-10.574-21.219-15.474-32.425-18.132c-9.147-2.169-18.415-2.253-27.663-3.712
		C302.241,200.603,291.913,196.04,281.672,191.709"/>
	<path d="M263.722,133.732c-12.539,10.732-41.93,34.679-27.398,53.963c9.73,12.916,26.355-3.853,28.945-13.585
		C268.799,160.85,263.722,147.063,263.722,133.732"/>
	<path d="M344.034,193.066c16.221,2.13,54.082,8.008,58.537-15.806c3.068-16.397-21.67-16.854-30.65-11.768
		C360.359,172.039,353.685,184.387,344.034,193.066"/>
	<path d="M179.098,228.609c-12.18,0.045-26.963-0.323-38.666,2.678c-10.608,2.719-26.754,12.997-26.691,25.673
		c0.042,8.247,10.587,13.771,17.617,14.365c7.773,0.656,15.542-2.797,21.35-7.748C163.99,253.956,169.659,239.721,179.098,228.609"
		/>
	<path d="M338.84,86.342c12.125-1.158,26.882-2.141,38.261-6.197c10.315-3.679,25.456-15.385,24.233-28.005
		c-0.793-8.207-11.801-12.748-18.854-12.697c-7.8,0.056-15.223,4.204-20.552,9.666C351.571,59.722,347.227,74.416,338.84,86.342"/>
	<path d="M253.979,46.812c-2.072,19.784,0.051,40.208-3.619,59.751c-2.023,10.771-5.615,18.426-15.925,23.204
		c-9.396,4.353-20.987,6.299-30.985,2.843c-22.34-7.722-7.86-35.088,4.802-45.285C224.195,74.487,238.739,60.441,253.979,46.812"/>
	<path d="M278.983,116.032c23.488-21.301,60.891-46.6,66.541-79.5c3.717-21.65-7.793-31.897-27.232-35.868
		c-28.838-5.891-45.004,28.741-46.896,52.934c-0.951,12.138,0.448,24.763,0.912,36.909c0.166,4.312,3.489,30.716,1.437,31.991
		C275.879,121.169,277.521,118.038,278.983,116.032"/>
	<path d="M261.715,14.375c-15.498-1.351-32.715-3.663-48.104-0.732c-16.938,3.227-54.402,19.13-39.726,42.511
		c13.673,21.785,39.502-2.266,51.785-12.843C237.592,33.046,248.304,22.94,261.715,14.375"/>
	<path d="M174.295,114.883c-4.554-26.437-13.398-56.29-41.375-66.257c-8.765-3.124-15.529-4.332-18.211,5.952
		c-2.719,10.431-1.411,21.562,4.131,30.797C131.53,106.53,152.451,109.035,174.295,114.883"/>
	<path d="M396.375,87.012c-16.449,13.702-42.541,11.372-62.242,17.606c-12.938,4.093-21.221,10.362-31.26,19.134
		c-9.484,8.289-21.461,16.375-22.24,30.006c-1.594,27.761,25.461,36.948,48.502,27.045c21.216-9.119,33.236-33.029,43.764-52.234
		c2.661-4.855,5.107-9.814,7.667-14.725C385.297,104.758,392.155,96.203,396.375,87.012"/>
	<path d="M312.2,460.293h-3.009v7.85h2.673c2.256,0,4.303-1.127,4.303-4.091C316.167,460.92,314.456,460.293,312.2,460.293z"/>
	<path d="M142.891,460.628h-0.962v17.162h1.629c3.383,0,6.848-1.587,6.848-8.938C150.406,460.92,146.355,460.628,142.891,460.628z"
		/>
	<path d="M179.683,460.46c-3.926,0-5.847,2.798-5.847,8.894c0,6.014,1.796,8.687,5.596,8.687c3.883,0,5.678-2.922,5.678-9.062
		C185.11,463.509,183.774,460.46,179.683,460.46z"/>
	<polygon points="345.149,461.42 341.977,472.529 348.489,472.529 345.233,461.42 	"/>
	<path d="M476.733,439.167c0,0-14.654-2.198-60.08-0.732c-45.427,1.468-161.93-0.732-236.666,2.932
		c-74.736,3.664-167.789,5.128-167.789,5.128l2.198,46.895c0,0,114.302-0.733,171.453-1.466
		c57.149-0.731,205.146,3.904,257.181,2.93c11.35-0.212,35.17-5.859,35.17-5.859L476.733,439.167z M60.405,461.295h-8.101v22.967
		h-9.271v-22.967h-8.309v-7.058h25.682v7.058H60.405z M86.3,460.877H74.648v5.221h9.898v6.222h-9.898v5.221H86.3v6.723H65.42
		v-30.023H86.3V460.877z M109.644,474.659c0,6.931-3.048,10.146-10.898,10.146c-3.383,0-6.307-0.627-7.517-1.127l-0.5-6.307h0.292
		c1.67,0.586,3.34,0.962,5.386,0.962c3.048,0,3.967-0.962,3.967-4.762v-12.61H92.44v-6.724h17.205L109.644,474.659L109.644,474.659z
		 M125.6,484.262h-9.185v-30.023h9.185V484.262z M143.223,484.262h-10.522v-30.023h12.654c7.766,0,14.657,3.843,14.657,14.156
		C160.012,480.087,152.829,484.262,143.223,484.262z M179.224,484.889c-11.443,0-14.824-7.559-14.824-15.45
		c0-8.979,4.675-15.827,15.492-15.827c11.149,0,14.657,7.018,14.657,15.199C194.548,477.164,190.539,484.889,179.224,484.889z
		 M245.124,484.262h-8.017v-23.51h-0.21l-4.508,21.005h-9.855l-4.469-21.005h-0.208v23.51h-7.977v-30.023h13.362l4.259,21.423h0.21
		l4.008-21.423h13.405V484.262L245.124,484.262z M261.415,484.262h-9.186v-30.023h9.186V484.262z M293.697,482.676
		c-2.005,1.167-7.226,2.213-11.024,2.213c-11.732,0-15.407-7.35-15.407-15.491c0-8.229,4.802-15.786,16.159-15.786
		c3.424,0,6.556,0.586,8.31,1.295l0.668,7.142l-0.166,0.041c-1.713-0.668-4.637-1.42-7.434-1.42c-4.552,0-8.185,2.046-8.185,8.729
		c0,5.805,2.42,8.686,6.682,8.686c1.252,0,2.13-0.209,2.463-0.335v-4.216h-3.508v-5.473h11.443L293.697,482.676L293.697,482.676z
		 M317,484.262l-5.219-10.438c-0.043,0-0.294,0-0.418,0h-2.173v10.438h-9.228v-30.023H313.2c8.771,0,12.236,3.216,12.236,9.438
		c0,4.051-2.048,6.89-5.055,8.478l6.725,12.108H317z M351.665,484.262l-1.754-5.721h-9.354l-1.711,5.721h-9.438l10.649-30.023
		h10.688l10.482,30.023H351.665z M393.68,484.262h-11.233l-8.688-20.17h-0.164v20.17h-7.77v-30.023h11.317l8.521,21.005h0.207
		v-21.005h7.811V484.262L393.68,484.262z M424.375,461.295h-8.102v22.967h-9.271v-22.967h-8.309v-7.058h25.682V461.295
		L424.375,461.295z M450.272,460.877H438.62v5.221h9.896v6.222h-9.896v5.221h11.652v6.723h-20.881v-30.023h20.881V460.877z"/>
</g>
</svg>
